# xmcd
#
# Track frame offsets: 
#        150
#        28186
#        41187
#        60232
#        82530
#        97104
#        112969
#        125879
#        140135
#        155820
#        168208
#        183364
#        196988
#        207798
#        219240
#
# Disc length: 3226 seconds
#
# Revision: 4
# Processed by: cddbd v1.5.1PL0 Copyright (c) Steve Scherf et al.
# Submitted via: ExactAudioCopy v0.95a5
#
DISCID=d10c980f
DTITLE=Various Artist - Double Crossing Blues
DYEAR=1998
DGENRE=Blues
TTITLE0=Lonnie Brooks and Koko Taylor - If the Price Is Right
TTITLE1=Wynonie Harris and Joe Turner - Battle of the Blues
TTITLE2=Muddy Waters, Howlin' Wolf and Bo Diddley - Spoonful
TTITLE3=Buddy Guy and Junior Wells - High Heel Sneakers
TTITLE4=Louis Jordan and Ella Fitzgerald - Ain't Nobody's Business But M
TTITLE4=y Own
TTITLE5=Bessie Smith and Clara Smith - My Man Blues
TTITLE6=Big Mama Thornton and Johnny Ace - Yes, Baby
TTITLE7=Cephas and Wiggins - The Blues Will Do Your Heart Good
TTITLE8=Butterbeans and Susie - I Wanna Hot Dog for My Roll
TTITLE9=Rufus Thomas and Carla Thomas - 'Cause I Love You
TTITLE10=Sonny Terry and Brownie McGhee - Red River Blues
TTITLE11=Bobby Bland and Junior Parker - Love My Baby
TTITLE12=Shirley and Lee - Let the Good Times Roll
TTITLE13=Charles Brown and Amos Milburn - I Wanna Go Home
TTITLE14=Victoria Spivey and Lonnie Johnson - I Got Men All Over This To
TTITLE14=wn
EXTD=LABEL =Platinum Entertainment, Inc.\nID =5141613412\nUPC =7514
EXTD=16-1341-23\nCOPYRIGHT =1998
EXTT0=
EXTT1=
EXTT2=
EXTT3=
EXTT4=
EXTT5=
EXTT6=
EXTT7=
EXTT8=
EXTT9=
EXTT10=
EXTT11=
EXTT12=
EXTT13=
EXTT14=
PLAYORDER=
